<!DOCTYPE svg PUBLIC "-//W3C//DTD SVG 1.1//EN" "http://www.w3.org/Graphics/SVG/1.1/DTD/svg11.dtd">

<!-- Uploaded to: SVG Repo, www.svgrepo.com, Transformed by: SVG Repo Mixer Tools -->
<svg width="161px" height="161px" viewBox="0 0 24.00 24.00" xmlns="http://www.w3.org/2000/svg" id="menu" class="icon glyph" fill="#000000" transform="rotate(0)matrix(-1, 0, 0, -1, 0, 0)">

<g id="SVGRepo_bgCarrier" stroke-width="0"/>

<g id="SVGRepo_tracerCarrier" stroke-linecap="round" stroke-linejoin="round"/>

<g id="SVGRepo_iconCarrier">

<path d="M21,19H9a1,1,0,0,1,0-2H21a1,1,0,0,1,0,2Z" style="fill:#ffff"/>

<path d="M21,13H3a1,1,0,0,1,0-2H21a1,1,0,0,1,0,2Z" style="fill:#ffff"/>

<path d="M15,7H3A1,1,0,0,1,3,5H15a1,1,0,0,1,0,2Z" style="fill:#ffff"/>

</g>

</svg>